<mxfile host="app.diagrams.net" agent="Mozilla/5.0 (Windows NT 10.0; Win64; x64) AppleWebKit/537.36 (KHTML, like Gecko) Chrome/138.0.0.0 Safari/537.36" version="28.0.9" pages="2">
  <diagram name="Page-1" id="MBI44EJJOoo2Y8QBGfnS">
    <mxGraphModel dx="2258" dy="850" grid="0" gridSize="10" guides="1" tooltips="1" connect="1" arrows="1" fold="1" page="1" pageScale="1" pageWidth="827" pageHeight="1169" background="none" math="0" shadow="0">
      <root>
        <mxCell id="0" />
        <mxCell id="1" parent="0" />
        <mxCell id="8z1Czuowc_zQJv4U1ZUe-1" value="AWS Cloud" style="points=[[0,0],[0.25,0],[0.5,0],[0.75,0],[1,0],[1,0.25],[1,0.5],[1,0.75],[1,1],[0.75,1],[0.5,1],[0.25,1],[0,1],[0,0.75],[0,0.5],[0,0.25]];outlineConnect=0;gradientColor=none;html=1;whiteSpace=wrap;fontSize=12;fontStyle=0;container=1;pointerEvents=0;collapsible=0;recursiveResize=0;shape=mxgraph.aws4.group;grIcon=mxgraph.aws4.group_aws_cloud;strokeColor=#232F3E;fillColor=none;verticalAlign=top;align=left;spacingLeft=30;fontColor=#232F3E;dashed=0;strokeWidth=3;" parent="1" vertex="1">
          <mxGeometry x="121" y="56" width="1061" height="907" as="geometry" />
        </mxCell>
        <mxCell id="oy1zIcQ2R4JUwzFLY2nQ-2" value="&lt;font face=&quot;Helvetica&quot; style=&quot;font-size: 14px; color: light-dark(rgb(0, 0, 0), rgb(255, 255, 255));&quot;&gt;&lt;b style=&quot;&quot;&gt;EU-West-2&lt;/b&gt;&lt;/font&gt;" style="points=[[0,0],[0.25,0],[0.5,0],[0.75,0],[1,0],[1,0.25],[1,0.5],[1,0.75],[1,1],[0.75,1],[0.5,1],[0.25,1],[0,1],[0,0.75],[0,0.5],[0,0.25]];outlineConnect=0;gradientColor=none;html=1;whiteSpace=wrap;fontSize=12;fontStyle=0;container=1;pointerEvents=0;collapsible=0;recursiveResize=0;shape=mxgraph.aws4.group;grIcon=mxgraph.aws4.group_region;strokeColor=light-dark(#00A4A6,#1A3300);fillColor=none;verticalAlign=top;align=left;spacingLeft=30;fontColor=#147EBA;strokeWidth=3;" parent="8z1Czuowc_zQJv4U1ZUe-1" vertex="1">
          <mxGeometry x="350" y="32" width="639" height="836" as="geometry" />
        </mxCell>
        <mxCell id="oy1zIcQ2R4JUwzFLY2nQ-32" style="edgeStyle=orthogonalEdgeStyle;rounded=0;orthogonalLoop=1;jettySize=auto;html=1;" parent="oy1zIcQ2R4JUwzFLY2nQ-2" source="oy1zIcQ2R4JUwzFLY2nQ-3" target="oy1zIcQ2R4JUwzFLY2nQ-8" edge="1">
          <mxGeometry relative="1" as="geometry">
            <Array as="points">
              <mxPoint x="112" y="509" />
              <mxPoint x="112" y="509" />
            </Array>
          </mxGeometry>
        </mxCell>
        <mxCell id="oy1zIcQ2R4JUwzFLY2nQ-33" style="edgeStyle=orthogonalEdgeStyle;rounded=0;orthogonalLoop=1;jettySize=auto;html=1;" parent="oy1zIcQ2R4JUwzFLY2nQ-2" source="oy1zIcQ2R4JUwzFLY2nQ-40" target="oy1zIcQ2R4JUwzFLY2nQ-7" edge="1">
          <mxGeometry relative="1" as="geometry">
            <Array as="points">
              <mxPoint x="171" y="327" />
              <mxPoint x="258" y="327" />
            </Array>
          </mxGeometry>
        </mxCell>
        <mxCell id="oy1zIcQ2R4JUwzFLY2nQ-39" style="edgeStyle=orthogonalEdgeStyle;rounded=0;orthogonalLoop=1;jettySize=auto;html=1;" parent="oy1zIcQ2R4JUwzFLY2nQ-2" source="oy1zIcQ2R4JUwzFLY2nQ-3" edge="1">
          <mxGeometry relative="1" as="geometry">
            <mxPoint x="430" y="251" as="targetPoint" />
            <Array as="points">
              <mxPoint x="369" y="251" />
              <mxPoint x="369" y="251" />
            </Array>
          </mxGeometry>
        </mxCell>
        <mxCell id="oy1zIcQ2R4JUwzFLY2nQ-3" value="" style="sketch=0;points=[[0,0,0],[0.25,0,0],[0.5,0,0],[0.75,0,0],[1,0,0],[0,1,0],[0.25,1,0],[0.5,1,0],[0.75,1,0],[1,1,0],[0,0.25,0],[0,0.5,0],[0,0.75,0],[1,0.25,0],[1,0.5,0],[1,0.75,0]];outlineConnect=0;fontColor=#232F3E;fillColor=light-dark(#DD344C,#FF6666);strokeColor=#ffffff;dashed=0;verticalLabelPosition=bottom;verticalAlign=top;align=center;html=1;fontSize=12;fontStyle=0;aspect=fixed;shape=mxgraph.aws4.resourceIcon;resIcon=mxgraph.aws4.cognito;" parent="oy1zIcQ2R4JUwzFLY2nQ-2" vertex="1">
          <mxGeometry x="88" y="219" width="93" height="93" as="geometry" />
        </mxCell>
        <mxCell id="dRwr2UJqyxk_xct62dgn-3" value="&lt;b&gt;&lt;font style=&quot;font-size: 14px;&quot;&gt;Amazon Cognito&lt;/font&gt;&lt;/b&gt;" style="text;html=1;align=center;verticalAlign=middle;resizable=0;points=[];autosize=1;strokeColor=none;fillColor=none;" parent="oy1zIcQ2R4JUwzFLY2nQ-2" vertex="1">
          <mxGeometry x="75.5" y="185" width="130" height="30" as="geometry" />
        </mxCell>
        <mxCell id="oy1zIcQ2R4JUwzFLY2nQ-35" style="edgeStyle=orthogonalEdgeStyle;rounded=0;orthogonalLoop=1;jettySize=auto;html=1;" parent="oy1zIcQ2R4JUwzFLY2nQ-2" source="oy1zIcQ2R4JUwzFLY2nQ-7" target="oy1zIcQ2R4JUwzFLY2nQ-16" edge="1">
          <mxGeometry relative="1" as="geometry">
            <Array as="points">
              <mxPoint x="268" y="546" />
            </Array>
          </mxGeometry>
        </mxCell>
        <mxCell id="oy1zIcQ2R4JUwzFLY2nQ-36" style="edgeStyle=orthogonalEdgeStyle;rounded=0;orthogonalLoop=1;jettySize=auto;html=1;" parent="oy1zIcQ2R4JUwzFLY2nQ-2" source="oy1zIcQ2R4JUwzFLY2nQ-7" target="oy1zIcQ2R4JUwzFLY2nQ-15" edge="1">
          <mxGeometry relative="1" as="geometry">
            <Array as="points">
              <mxPoint x="357" y="639" />
              <mxPoint x="357" y="682" />
            </Array>
          </mxGeometry>
        </mxCell>
        <mxCell id="oy1zIcQ2R4JUwzFLY2nQ-7" value="" style="sketch=0;outlineConnect=0;fontColor=#232F3E;gradientColor=none;fillColor=#7AA116;strokeColor=none;dashed=0;verticalLabelPosition=bottom;verticalAlign=top;align=center;html=1;fontSize=12;fontStyle=0;aspect=fixed;pointerEvents=1;shape=mxgraph.aws4.lambda_function;" parent="oy1zIcQ2R4JUwzFLY2nQ-2" vertex="1">
          <mxGeometry x="218.5" y="600" width="71" height="71" as="geometry" />
        </mxCell>
        <mxCell id="oy1zIcQ2R4JUwzFLY2nQ-42" style="edgeStyle=orthogonalEdgeStyle;rounded=0;orthogonalLoop=1;jettySize=auto;html=1;" parent="oy1zIcQ2R4JUwzFLY2nQ-2" source="oy1zIcQ2R4JUwzFLY2nQ-8" target="oy1zIcQ2R4JUwzFLY2nQ-7" edge="1">
          <mxGeometry relative="1" as="geometry" />
        </mxCell>
        <mxCell id="oy1zIcQ2R4JUwzFLY2nQ-8" value="" style="sketch=0;outlineConnect=0;fontColor=#232F3E;gradientColor=none;fillColor=#7AA116;strokeColor=none;dashed=0;verticalLabelPosition=bottom;verticalAlign=top;align=center;html=1;fontSize=12;fontStyle=0;aspect=fixed;pointerEvents=1;shape=mxgraph.aws4.lambda_function;" parent="oy1zIcQ2R4JUwzFLY2nQ-2" vertex="1">
          <mxGeometry x="70.5" y="600" width="71" height="71" as="geometry" />
        </mxCell>
        <mxCell id="oy1zIcQ2R4JUwzFLY2nQ-11" value="&lt;b&gt;&lt;font style=&quot;font-size: 12px;&quot;&gt;Post Comfirmation&lt;br&gt;Lambda&lt;/font&gt;&lt;/b&gt;" style="text;html=1;align=center;verticalAlign=middle;resizable=0;points=[];autosize=1;strokeColor=none;fillColor=none;" parent="oy1zIcQ2R4JUwzFLY2nQ-2" vertex="1">
          <mxGeometry x="53" y="667" width="125" height="41" as="geometry" />
        </mxCell>
        <mxCell id="oy1zIcQ2R4JUwzFLY2nQ-12" value="&lt;b style=&quot;&quot;&gt;&lt;font style=&quot;font-size: 12px;&quot;&gt;Custom SMS&amp;nbsp;&lt;br&gt;Lambda&lt;/font&gt;&lt;/b&gt;" style="text;html=1;align=center;verticalAlign=middle;resizable=0;points=[];autosize=1;strokeColor=none;fillColor=none;" parent="oy1zIcQ2R4JUwzFLY2nQ-2" vertex="1">
          <mxGeometry x="214" y="669.5" width="95" height="41" as="geometry" />
        </mxCell>
        <mxCell id="oy1zIcQ2R4JUwzFLY2nQ-15" value="" style="sketch=0;outlineConnect=0;fontColor=#232F3E;gradientColor=none;strokeColor=#ffffff;fillColor=#232F3E;dashed=0;verticalLabelPosition=middle;verticalAlign=bottom;align=center;html=1;whiteSpace=wrap;fontSize=10;fontStyle=1;spacing=3;shape=mxgraph.aws4.productIcon;prIcon=mxgraph.aws4.sns;" parent="oy1zIcQ2R4JUwzFLY2nQ-2" vertex="1">
          <mxGeometry x="418.5" y="640" width="80" height="100" as="geometry" />
        </mxCell>
        <mxCell id="oy1zIcQ2R4JUwzFLY2nQ-16" value="" style="sketch=0;points=[[0,0,0],[0.25,0,0],[0.5,0,0],[0.75,0,0],[1,0,0],[0,1,0],[0.25,1,0],[0.5,1,0],[0.75,1,0],[1,1,0],[0,0.25,0],[0,0.5,0],[0,0.75,0],[1,0.25,0],[1,0.5,0],[1,0.75,0]];outlineConnect=0;fontColor=#232F3E;fillColor=#DD344C;strokeColor=#ffffff;dashed=0;verticalLabelPosition=bottom;verticalAlign=top;align=center;html=1;fontSize=12;fontStyle=0;aspect=fixed;shape=mxgraph.aws4.resourceIcon;resIcon=mxgraph.aws4.simple_email_service;" parent="oy1zIcQ2R4JUwzFLY2nQ-2" vertex="1">
          <mxGeometry x="422.5" y="502" width="78" height="78" as="geometry" />
        </mxCell>
        <mxCell id="oy1zIcQ2R4JUwzFLY2nQ-20" value="&lt;b&gt;&lt;font style=&quot;font-size: 14px;&quot;&gt;Trainee&amp;nbsp;SNS&lt;/font&gt;&lt;/b&gt;" style="text;html=1;align=center;verticalAlign=middle;resizable=0;points=[];autosize=1;strokeColor=none;fillColor=none;" parent="oy1zIcQ2R4JUwzFLY2nQ-2" vertex="1">
          <mxGeometry x="405.5" y="716" width="100" height="29" as="geometry" />
        </mxCell>
        <mxCell id="oy1zIcQ2R4JUwzFLY2nQ-18" value="&lt;b&gt;&lt;font style=&quot;font-size: 14px;&quot;&gt;Trainee SES&lt;/font&gt;&lt;/b&gt;" style="text;html=1;align=center;verticalAlign=middle;resizable=0;points=[];autosize=1;strokeColor=none;fillColor=none;" parent="oy1zIcQ2R4JUwzFLY2nQ-2" vertex="1">
          <mxGeometry x="409" y="579" width="99" height="29" as="geometry" />
        </mxCell>
        <mxCell id="oy1zIcQ2R4JUwzFLY2nQ-38" value="&lt;span style=&quot;font-size: 14px;&quot;&gt;&lt;b&gt;Trainee API &lt;br&gt;Gateway&lt;/b&gt;&lt;/span&gt;" style="text;html=1;align=center;verticalAlign=middle;resizable=0;points=[];autosize=1;strokeColor=none;fillColor=none;" parent="oy1zIcQ2R4JUwzFLY2nQ-2" vertex="1">
          <mxGeometry x="437" y="315" width="94" height="46" as="geometry" />
        </mxCell>
        <mxCell id="oy1zIcQ2R4JUwzFLY2nQ-41" value="" style="edgeStyle=orthogonalEdgeStyle;rounded=0;orthogonalLoop=1;jettySize=auto;html=1;" parent="oy1zIcQ2R4JUwzFLY2nQ-2" source="oy1zIcQ2R4JUwzFLY2nQ-3" target="oy1zIcQ2R4JUwzFLY2nQ-40" edge="1">
          <mxGeometry relative="1" as="geometry">
            <mxPoint x="668" y="397" as="sourcePoint" />
            <mxPoint x="755" y="661" as="targetPoint" />
            <Array as="points" />
          </mxGeometry>
        </mxCell>
        <mxCell id="oy1zIcQ2R4JUwzFLY2nQ-40" value="Trainee Custom&lt;br&gt;SMS KMS Key" style="sketch=0;outlineConnect=0;fontColor=#232F3E;gradientColor=none;strokeColor=#ffffff;fillColor=#232F3E;dashed=0;verticalLabelPosition=middle;verticalAlign=bottom;align=center;html=1;whiteSpace=wrap;fontSize=10;fontStyle=1;spacing=3;shape=mxgraph.aws4.productIcon;prIcon=mxgraph.aws4.key_management_service;" parent="oy1zIcQ2R4JUwzFLY2nQ-2" vertex="1">
          <mxGeometry x="214" y="366" width="65" height="106" as="geometry" />
        </mxCell>
        <mxCell id="oy1zIcQ2R4JUwzFLY2nQ-43" value="" style="sketch=0;points=[[0,0,0],[0.25,0,0],[0.5,0,0],[0.75,0,0],[1,0,0],[0,1,0],[0.25,1,0],[0.5,1,0],[0.75,1,0],[1,1,0],[0,0.25,0],[0,0.5,0],[0,0.75,0],[1,0.25,0],[1,0.5,0],[1,0.75,0]];outlineConnect=0;fontColor=#232F3E;fillColor=#8C4FFF;strokeColor=#ffffff;dashed=0;verticalLabelPosition=bottom;verticalAlign=top;align=center;html=1;fontSize=12;fontStyle=0;aspect=fixed;shape=mxgraph.aws4.resourceIcon;resIcon=mxgraph.aws4.api_gateway;" parent="oy1zIcQ2R4JUwzFLY2nQ-2" vertex="1">
          <mxGeometry x="431" y="199" width="121" height="121" as="geometry" />
        </mxCell>
        <mxCell id="oy1zIcQ2R4JUwzFLY2nQ-24" value="" style="sketch=0;outlineConnect=0;fontColor=#232F3E;gradientColor=none;fillColor=#7AA116;strokeColor=none;dashed=0;verticalLabelPosition=bottom;verticalAlign=top;align=center;html=1;fontSize=12;fontStyle=0;aspect=fixed;pointerEvents=1;shape=mxgraph.aws4.bucket_with_objects;" parent="oy1zIcQ2R4JUwzFLY2nQ-2" vertex="1">
          <mxGeometry x="27.00000000000003" y="57" width="66.34" height="69" as="geometry" />
        </mxCell>
        <mxCell id="oy1zIcQ2R4JUwzFLY2nQ-25" value="&lt;b&gt;&lt;font style=&quot;font-size: 12px;&quot;&gt;Trainee&lt;br&gt;Frontend bucket&lt;br&gt;&lt;/font&gt;&lt;/b&gt;" style="text;html=1;align=center;verticalAlign=middle;resizable=0;points=[];autosize=1;strokeColor=none;fillColor=none;" parent="oy1zIcQ2R4JUwzFLY2nQ-2" vertex="1">
          <mxGeometry x="0.9999999999999591" y="123" width="112" height="41" as="geometry" />
        </mxCell>
        <mxCell id="oy1zIcQ2R4JUwzFLY2nQ-4" value="" style="sketch=0;points=[[0,0,0],[0.25,0,0],[0.5,0,0],[0.75,0,0],[1,0,0],[0,1,0],[0.25,1,0],[0.5,1,0],[0.75,1,0],[1,1,0],[0,0.25,0],[0,0.5,0],[0,0.75,0],[1,0.25,0],[1,0.5,0],[1,0.75,0]];outlineConnect=0;fontColor=#232F3E;fillColor=#8C4FFF;strokeColor=#ffffff;dashed=0;verticalLabelPosition=bottom;verticalAlign=top;align=center;html=1;fontSize=12;fontStyle=0;aspect=fixed;shape=mxgraph.aws4.resourceIcon;resIcon=mxgraph.aws4.cloudfront;" parent="8z1Czuowc_zQJv4U1ZUe-1" vertex="1">
          <mxGeometry x="192" y="672" width="87" height="87" as="geometry" />
        </mxCell>
        <mxCell id="oy1zIcQ2R4JUwzFLY2nQ-6" value="&lt;b&gt;&lt;font style=&quot;font-size: 12px;&quot;&gt;Trainee&lt;br&gt;CloudFront&lt;/font&gt;&lt;/b&gt;" style="text;html=1;align=center;verticalAlign=middle;resizable=0;points=[];autosize=1;strokeColor=none;fillColor=none;" parent="8z1Czuowc_zQJv4U1ZUe-1" vertex="1">
          <mxGeometry x="192" y="758" width="83" height="41" as="geometry" />
        </mxCell>
        <mxCell id="oy1zIcQ2R4JUwzFLY2nQ-23" value="" style="edgeStyle=orthogonalEdgeStyle;rounded=0;orthogonalLoop=1;jettySize=auto;html=1;" parent="8z1Czuowc_zQJv4U1ZUe-1" source="oy1zIcQ2R4JUwzFLY2nQ-21" target="oy1zIcQ2R4JUwzFLY2nQ-4" edge="1">
          <mxGeometry relative="1" as="geometry" />
        </mxCell>
        <mxCell id="oy1zIcQ2R4JUwzFLY2nQ-21" value="" style="sketch=0;points=[[0,0,0],[0.25,0,0],[0.5,0,0],[0.75,0,0],[1,0,0],[0,1,0],[0.25,1,0],[0.5,1,0],[0.75,1,0],[1,1,0],[0,0.25,0],[0,0.5,0],[0,0.75,0],[1,0.25,0],[1,0.5,0],[1,0.75,0]];outlineConnect=0;fontColor=#232F3E;fillColor=#8C4FFF;strokeColor=#ffffff;dashed=0;verticalLabelPosition=bottom;verticalAlign=top;align=center;html=1;fontSize=12;fontStyle=0;aspect=fixed;shape=mxgraph.aws4.resourceIcon;resIcon=mxgraph.aws4.route_53;" parent="8z1Czuowc_zQJv4U1ZUe-1" vertex="1">
          <mxGeometry x="35" y="674" width="82" height="82" as="geometry" />
        </mxCell>
        <mxCell id="oy1zIcQ2R4JUwzFLY2nQ-22" value="&lt;b style=&quot;&quot;&gt;&lt;font style=&quot;font-size: 14px;&quot;&gt;trainee.tis.nhs.uk&lt;/font&gt;&lt;/b&gt;" style="text;html=1;align=center;verticalAlign=middle;resizable=0;points=[];autosize=1;strokeColor=none;fillColor=none;" parent="8z1Czuowc_zQJv4U1ZUe-1" vertex="1">
          <mxGeometry x="10" y="752" width="133" height="29" as="geometry" />
        </mxCell>
        <mxCell id="oy1zIcQ2R4JUwzFLY2nQ-26" style="edgeStyle=orthogonalEdgeStyle;rounded=0;orthogonalLoop=1;jettySize=auto;html=1;exitX=0.5;exitY=0;exitDx=0;exitDy=0;exitPerimeter=0;" parent="8z1Czuowc_zQJv4U1ZUe-1" target="oy1zIcQ2R4JUwzFLY2nQ-24" edge="1">
          <mxGeometry relative="1" as="geometry">
            <mxPoint x="234.5" y="672" as="sourcePoint" />
            <mxPoint x="235" y="207" as="targetPoint" />
            <Array as="points">
              <mxPoint x="235" y="673" />
              <mxPoint x="250" y="673" />
              <mxPoint x="250" y="124" />
            </Array>
          </mxGeometry>
        </mxCell>
        <mxCell id="oy1zIcQ2R4JUwzFLY2nQ-31" style="edgeStyle=orthogonalEdgeStyle;rounded=0;orthogonalLoop=1;jettySize=auto;html=1;entryX=0;entryY=0.25;entryDx=0;entryDy=0;entryPerimeter=0;" parent="8z1Czuowc_zQJv4U1ZUe-1" source="oy1zIcQ2R4JUwzFLY2nQ-4" target="oy1zIcQ2R4JUwzFLY2nQ-3" edge="1">
          <mxGeometry relative="1" as="geometry">
            <Array as="points">
              <mxPoint x="313" y="716" />
              <mxPoint x="313" y="274" />
            </Array>
          </mxGeometry>
        </mxCell>
        <mxCell id="oy1zIcQ2R4JUwzFLY2nQ-49" style="edgeStyle=orthogonalEdgeStyle;rounded=0;orthogonalLoop=1;jettySize=auto;html=1;" parent="1" source="oy1zIcQ2R4JUwzFLY2nQ-45" target="oy1zIcQ2R4JUwzFLY2nQ-21" edge="1">
          <mxGeometry relative="1" as="geometry" />
        </mxCell>
        <mxCell id="oy1zIcQ2R4JUwzFLY2nQ-45" value="" style="sketch=0;outlineConnect=0;gradientColor=none;fontColor=#545B64;strokeColor=none;fillColor=#879196;dashed=0;verticalLabelPosition=bottom;verticalAlign=top;align=center;html=1;fontSize=12;fontStyle=0;aspect=fixed;shape=mxgraph.aws4.illustration_users;pointerEvents=1" parent="1" vertex="1">
          <mxGeometry x="9" y="739" width="64" height="64" as="geometry" />
        </mxCell>
        <mxCell id="oy1zIcQ2R4JUwzFLY2nQ-46" value="&lt;b style=&quot;&quot;&gt;&lt;font style=&quot;font-size: 14px;&quot;&gt;Trainees&lt;/font&gt;&lt;/b&gt;" style="text;html=1;align=center;verticalAlign=middle;resizable=0;points=[];autosize=1;strokeColor=none;fillColor=none;" parent="1" vertex="1">
          <mxGeometry x="7" y="806" width="75" height="29" as="geometry" />
        </mxCell>
      </root>
    </mxGraphModel>
  </diagram>
  <diagram id="jZfzlFDYPmrCQ1H-l_xB" name="Page-2">
    <mxGraphModel dx="2946" dy="1137" grid="1" gridSize="10" guides="1" tooltips="1" connect="1" arrows="1" fold="1" page="1" pageScale="1" pageWidth="827" pageHeight="1169" math="0" shadow="0">
      <root>
        <mxCell id="0" />
        <mxCell id="1" parent="0" />
      </root>
    </mxGraphModel>
  </diagram>
</mxfile>
